<svg width="336" height="315" viewBox="0 0 336 315" xmlns="http://www.w3.org/2000/svg"><title>icon-stage-partner@3x</title><defs><linearGradient x1="13.647%" y1="36.583%" y2="100%" id="a"><stop stop-color="#D1D1D1" stop-opacity="0" offset="0%"/><stop stop-color="#CAD0D2" offset="100%"/></linearGradient><filter x="-50%" y="-50%" width="200%" height="200%" filterUnits="objectBoundingBox" id="b"><feGaussianBlur stdDeviation="2.466" in="SourceGraphic" result="blur"/></filter></defs><g fill="none" fill-rule="evenodd"><path d="M224.684 266.306l-105.69-35.514 12.592-58.248 82.312 37.818 10.786 55.944z" fill="url(#a)" filter="url(#b)" transform="matrix(-1 0 0 1 341.68 20.778)"/><path d="M254.94 250.13a100.183 100.183 0 0 1-32.277 8.656c-56.62 5.386-106.35-37.954-111.073-96.802-4.723-58.848 37.35-110.92 93.97-116.305 56.622-5.387 106.35 37.953 111.073 96.8 2.61 32.503-9.057 62.938-29.565 84.583l4.25 41.274-36.377-18.206z" fill="#FBC800"/><path d="M79.836 187.345a43.63 43.63 0 0 1-13.3 5.093c-23.737 4.867-46.592-10.816-51.046-35.03-4.454-24.212 11.18-47.786 34.917-52.652 23.74-4.867 46.593 10.816 51.047 35.03 2.46 13.372-1.207 26.55-8.983 36.49l3.522 16.938-16.156-5.87z" fill="#EE478A"/><path d="M248.078 89.84a35.023 35.023 0 0 1-6.37-9.044c-8.32-16.96-1.618-37.223 14.967-45.26 16.585-8.034 36.774-.8 45.093 16.16 8.32 16.96 1.618 37.224-14.967 45.26-9.16 4.437-19.418 4.217-28.17.273l-11.52 5.926.968-13.316z" fill="#1DC4FF"/><path d="M115.947 240.497c-9.316-6.98-17.684-15.605-24.67-25.8C56.705 164.252 69.05 94.48 118.85 58.858c49.8-35.62 118.196-23.603 152.768 26.844s22.227 120.22-27.573 155.84c-27.505 19.675-60.683 24.817-90.702 16.978l-34.434 25.867-2.963-43.888z" fill="#F92D3B"/><path d="M111.59 162.248c-4.723-58.75 37.35-110.735 93.97-116.112a99.955 99.955 0 0 1 15.02-.298c19.984 7.555 37.96 21.132 51.068 40.23 34.56 50.35 22.192 120.005-27.62 155.58-11.847 8.46-24.744 14.23-37.987 17.437-49.428-3.563-90.196-43.92-94.45-96.837z" fill="#D82935"/><path d="M279.54 99.475a32.742 32.742 0 0 0 7.26-2.52 32.47 32.47 0 0 0 10.626-8.216c-13.428-19.12-32.803-33.228-55.062-39.656a33.52 33.52 0 0 0-2.673 6.237c12.26 7.683 23.197 17.982 31.958 30.748a111.727 111.727 0 0 1 7.893 13.407z" fill="#4E8F07"/><path d="M271.75 86.135a111.96 111.96 0 0 1 7.852 13.35c-7.077 1.544-14.387.665-20.87-2.256l-11.52 5.926.97-13.316a35.023 35.023 0 0 1-6.37-9.044c-4.073-8.303-4.546-17.398-2.022-25.46 12.26 7.694 23.197 18.01 31.96 30.8z" fill="#B1220D"/><path d="M77.764 188.857c-9.06-25.927-8.173-54.156 1.687-79.198 11.008 6.087 19.314 16.996 21.816 30.595 2.46 13.373-1.208 26.55-8.984 36.49l3.52 16.94-16.154-5.87c-.618.362-1.246.71-1.884 1.042z" fill="#DC1C29"/><g stroke="#FFF" stroke-width="3"><path d="M135.68 135.365h18.927l16.907-10.38H209.9s.067 12.92-10.767 12.92h-15.73l-31.22 19.833s6.035 9.265 14.21 4.805c8.174-4.46 14.354-9.087 14.354-9.087h29.22M135.785 170.35h9.423l37.873 19.16 43.302-19.63h5.624M218.985 173.655L197.26 153.5M207.08 133.278h24.95"/><path d="M124 127.717h11.755v50.84H124zM243.016 127.717h-11.754v50.84h11.754"/></g></g></svg>